<svg xmlns="http://www.w3.org/2000/svg" width="21.706" height="21.187" viewBox="0 0 21.706 21.187">
  <g id="cart" transform="translate(0 -2.25)">
    <path id="Path_1" data-name="Path 1" d="M0,2.956A.715.715,0,0,1,.724,2.25H2.894a.72.72,0,0,1,.7.535l.587,2.289h16.8a.731.731,0,0,1,.559.258.694.694,0,0,1,.15.586l-1.447,7.062a.718.718,0,0,1-.673.566l-13.6.667.415,2.16H18.812a.706.706,0,1,1,0,1.412H5.788a.719.719,0,0,1-.711-.576L2.908,5.933,2.33,3.662H.724A.715.715,0,0,1,0,2.956ZM4.488,6.487,5.7,12.814l13.232-.648L20.1,6.487Zm2.747,11.3a2.826,2.826,0,1,0,2.894,2.825A2.86,2.86,0,0,0,7.235,17.787Zm10.129,0a2.826,2.826,0,1,0,2.894,2.825A2.86,2.86,0,0,0,17.365,17.787ZM7.235,19.2a1.413,1.413,0,1,0,1.447,1.412A1.43,1.43,0,0,0,7.235,19.2Zm10.129,0a1.413,1.413,0,1,0,1.447,1.412A1.43,1.43,0,0,0,17.365,19.2Z" fill="#707070" fill-rule="evenodd"/>
  </g>
</svg>
