<svg id="share" xmlns="http://www.w3.org/2000/svg" width="21.594" height="21.594" viewBox="0 0 21.594 21.594">
  <path id="Path_2" data-name="Path 2" d="M19.673,8.076,10.226,12.8l-.6-1.206L19.068,6.87l.6,1.206Zm-.6,12.147L9.621,15.5l.6-1.206,9.447,4.724-.6,1.206Z" transform="translate(-3.85 -2.749)" fill="#4e4d4d" fill-rule="evenodd"/>
  <path id="Path_3" data-name="Path 3" d="M18.22,5.4A2.024,2.024,0,1,0,16.2,3.374,2.024,2.024,0,0,0,18.22,5.4Zm0,1.35a3.374,3.374,0,1,0-3.374-3.374A3.374,3.374,0,0,0,18.22,6.748Zm0,13.5A2.024,2.024,0,1,0,16.2,18.22,2.024,2.024,0,0,0,18.22,20.244Zm0,1.35a3.374,3.374,0,1,0-3.374-3.374A3.374,3.374,0,0,0,18.22,21.594ZM3.374,12.821A2.024,2.024,0,1,0,1.35,10.8,2.024,2.024,0,0,0,3.374,12.821Zm0,1.35A3.374,3.374,0,1,0,0,10.8a3.374,3.374,0,0,0,3.374,3.374Z" fill="#4e4d4d" fill-rule="evenodd"/>
</svg>
